<svg xmlns="http://www.w3.org/2000/svg" viewBox="0 0 64 64">
  <!-- Maskable variant: full-bleed background, content kept inside the ~80% safe zone Android applies when masking to a circle/squircle. -->
  <rect width="64" height="64" fill="#34409c"/>
  <g fill="none" stroke="#ffffff" stroke-width="2.8" stroke-linecap="round" stroke-linejoin="round" transform="translate(16 16) scale(1.375)">
    <path d="m16 16 3-8 3 8c-.87.65-1.92 1-3 1s-2.13-.35-3-1Z"/>
    <path d="m2 16 3-8 3 8c-.87.65-1.92 1-3 1s-2.13-.35-3-1Z"/>
    <path d="M7 21h10"/>
    <path d="M12 3v18"/>
    <path d="M3 7h2c2 0 5-1 7-2 2 1 5 2 7 2h2"/>
  </g>
  <circle cx="49" cy="15" r="5" fill="#f5a524"/>
</svg>
